# xmcd
#
# Track frame offsets: 
#        150
#        14583
#        28937
#        42589
#        57142
#        70764
#        84560
#        97844
#        113111
#        126403
#        140170
#        155761
#        170915
#        184926
#        197848
#        212440
#        228356
#        243896
#
# Disc length: 3461 seconds
#
# Revision: 1
# Processed by: cddbd v1.5.2PL0 Copyright (c) Steve Scherf et al.
# Submitted via: ExactAudioCopy v0.95b2
#
DISCID=070d8312
DTITLE=Barbecue Bob - The Essential Barbecue Bob Disc 1
DYEAR=2001
DGENRE=Blues
TTITLE0=Barbecue Blues
TTITLE1=Honey You Don't Know My Mind
TTITLE2=Black Skunk Blues
TTITLE3=Goin' Up The Country
TTITLE4=California Blues
TTITLE5=Poor Boy A Long Ways From Home
TTITLE6=Yo Yo Blues
TTITLE7=How Long Pretty Mama
TTITLE8=Doin' The Scraunch
TTITLE9=Diddle-Da-Diddle
TTITLE10=She's Gone Blues
TTITLE11=My Mistake Blues
TTITLE12=Hurry And Bring It Back Home
TTITLE13=Chocolate To The Bone
TTITLE14=I'm On My Way Down Home
TTITLE15=It Won't Be Long Now (Part 1)
TTITLE16=It Won't Be Long Now (Part 2)
TTITLE17=Cold Wave Blues
EXTD=YEAR: 2001 ID3G: 0
EXTT0=
EXTT1=
EXTT2=
EXTT3=
EXTT4=
EXTT5=
EXTT6=
EXTT7=
EXTT8=
EXTT9=
EXTT10=
EXTT11=
EXTT12=
EXTT13=
EXTT14=
EXTT15=
EXTT16=
EXTT17=
PLAYORDER=
